# xmcd CD database file
# Copyright (C) 1995-1998 Ti Kan
#
# Track frame offsets:
#	150
#	4350
#	25160
#	41502
#	56302
#	71085
#	86647
#	101132
#	114840
#	129260
#	142920
#	157327
#	172537
#
# Disc length: 2325 seconds
#
# Revision: 1
# Processed by: cddbd v1.4PL0 Copyright (c) Steve Scherf et al.
# Submitted via: CDex 1.30Release
#
DISCID=a009130d
DTITLE=Dwight Whitley - BROTHERLY LOVE
DYEAR=2001
DGENRE=Country
TTITLE0=Introduction
TTITLE1=The Legend And The Man
TTITLE2=Lord, It Sure is Drunk Out Tonight
TTITLE3=Brotherly Love
TTITLE4=Nobody Like Yours
TTITLE5=I'm No Stranger To The Rain
TTITLE6=My Old Friend
TTITLE7=Don't Take Candy From Strangers
TTITLE8=I Want My Rib Back
TTITLE9=I'm Over You
TTITLE10=Honky Tonk Crazy
TTITLE11=Between An Old Memory And Me
TTITLE12=Special Moments
EXTD=YEAR: 2001 ID3G:   2
EXTT0=
EXTT1=
EXTT2=
EXTT3=
EXTT4=
EXTT5=
EXTT6=
EXTT7=
EXTT8=
EXTT9=
EXTT10=
EXTT11=
EXTT12=
PLAYORDER=
